<svg xmlns="http://www.w3.org/2000/svg" width="52" height="56" viewBox="0 0 52 56"> <g fill="none" fill-rule="nonzero"> <path fill="#E7C539" d="M24.884 12.071S19.892 5.355 26.578 0c0 0 3.661 5.476-1.694 12.071" /> <path fill="#27884D" d="M41.554 54.064a33.799 33.799 0 0 0 1.755-1.906 33.353 33.353 0 0 0 7.261-14.1c1.3-5.839.756-11.224-1.6-15.52a17.975 17.975 0 0 0-11.285-8.743 15.167 15.167 0 0 0-4.205-.575c-2.74.016-5.432.712-7.836 2.027a16.523 16.523 0 0 0-7.844-2.026 15.167 15.167 0 0 0-4.205.575 17.975 17.975 0 0 0-11.28 8.743c-2.36 4.326-2.9 9.681-1.6 15.52a33.352 33.352 0 0 0 7.348 14.162c.182.212.575.666 1.059 1.18a5.241 5.241 0 1 0 8.592-5.96l-.121-.121a4.621 4.621 0 0 0-.545-.545 23.927 23.927 0 0 1-6.232-10.924c-.817-3.691-1.18-10.165 5.6-12.071.454-.12.922-.181 1.392-.182a7.349 7.349 0 0 1 4.508 1.876l3.328 2.814 3.328-2.814a7.349 7.349 0 0 1 4.508-1.876c.47-.001.938.06 1.392.182 6.777 1.906 6.414 8.38 5.6 12.071a23.319 23.319 0 0 1-5.809 10.5c-.594.383-1.1.888-1.482 1.482l-.091.091.03.03a5.238 5.238 0 0 0 7.231 7.231l.061.061c.151-.121.272-.272.424-.393.255-.248.495-.511.718-.789z" /> <path fill="#1B703D" d="M24.793 12.041c3.143.16 6.255-.677 8.895-2.39a14.7 14.7 0 0 0 4.992-7.715s-5.052-.393-8.864 2.39a14.63 14.63 0 0 0-5.023 7.715z" /> <path fill="#709352" d="M31.933 10.347c.222.004.445-.006.666-.03a15.337 15.337 0 0 1-7.685 1.633 14.989 14.989 0 0 1 1.543-3.721 8.087 8.087 0 0 0 5.476 2.118z" opacity=".3" /> <path fill="#1B703D" d="M48.876 22.539a17.975 17.975 0 0 0-11.285-8.743 15.167 15.167 0 0 0-4.205-.575c-2.74.016-5.432.712-7.836 2.027v12.979l3.328-2.814a7.349 7.349 0 0 1 4.508-1.876c.47-.001.938.06 1.392.182 6.777 1.906 6.414 8.38 5.6 12.071a23.319 23.319 0 0 1-5.809 10.5c-.594.383-1.1.888-1.482 1.482l-.091.091.03.03a5.238 5.238 0 0 0 7.224 7.228l.061.061c.151-.121.272-.272.424-.393.274-.229.527-.482.756-.756a33.799 33.799 0 0 0 1.755-1.906 33.353 33.353 0 0 0 7.261-14.1c1.273-5.806.729-11.192-1.631-15.488z" /> </g></svg>