<svg xmlns="http://www.w3.org/2000/svg" width="131" height="42" viewBox="0 0 131 42" fill="none"><path d="M106.366 8.64214C109.667 7.24922 109.915 10.0972 110.909 11.4812C113.26 10.3012 115.478 9.17447 117.944 7.93237C118.406 9.77777 118.743 11.1175 119 12.1644C116.924 13.2911 115.008 14.338 113.082 15.3583C112.053 15.8995 111.716 16.6891 111.743 17.8603C111.814 21.4623 111.769 25.0733 111.769 28.8972C110.155 28.8972 108.699 28.9593 107.271 28.8528C106.943 28.8262 106.41 28.214 106.402 27.868C106.348 21.4357 106.366 15.0123 106.366 8.64214Z" fill="#1C2A51"></path><path d="M68.4563 12.5543C67.4094 12.5543 66.6021 12.5543 65.6882 12.5543C65.6882 11.1525 65.6882 9.83944 65.6882 8.43765C66.5577 8.37554 67.4005 8.31344 68.412 8.24246C68.412 6.63661 68.412 5.09286 68.412 3.46039C70.2041 3.13212 71.8366 2.83047 73.7352 2.47559C73.8328 4.43632 73.9215 6.28172 74.0014 8.11825C75.3145 8.31344 76.8671 8.10938 77.701 8.79253C78.5616 9.49343 78.7302 11.0549 79.2892 12.4656C77.3994 12.4656 75.7581 12.4656 74.0103 12.4656C74.0103 15.908 73.8417 19.1906 74.0635 22.4467C74.2321 24.8422 75.9 25.481 79.1383 24.7002C79.3779 25.268 79.6352 25.8536 79.8747 26.4392C80.824 28.7991 80.7708 29.0387 78.2955 29.5533C73.4247 30.5736 68.1369 28.3555 68.4297 22.1184C68.5717 19.0221 68.4563 15.8902 68.4563 12.5543Z" fill="#1C2A51"></path><path d="M45.5308 8.05646C46.9149 8.43796 48.1215 8.76623 49.8249 9.23645C51.7945 7.82579 54.5715 7.34669 57.5703 8.06534C60.3029 8.72187 62.4145 10.2035 63.6743 12.7232C65.4931 16.3608 65.5463 20.1314 63.9227 23.8311C61.9797 28.2583 56.7363 30.4497 52.0962 28.968C51.7413 28.8527 51.3864 28.764 50.8097 28.6043C50.8097 30.3787 50.8097 32.0378 50.8097 33.6969C50.8097 35.3559 50.8097 37.015 50.8097 38.754C48.9643 38.754 47.3053 38.754 45.522 38.754C45.5308 28.6841 45.5308 18.6231 45.5308 8.05646ZM50.6944 18.5788C50.6944 19.9273 50.6412 21.2759 50.721 22.6245C50.7476 23.0858 51.0049 23.6891 51.3598 23.9464C53.4625 25.4458 56.6298 24.8869 58.1292 22.793C59.602 20.7525 59.6641 18.4634 59.0431 16.1478C58.1913 12.9894 55.4055 11.6852 52.318 12.8385C51.1646 13.2644 50.517 13.85 50.6589 15.1896C50.792 16.3075 50.6944 17.4432 50.6944 18.5788Z" fill="#1C2A51"></path><path d="M35.8602 16.0858C35.4609 13.6194 34.5649 12.7322 32.3025 12.9007C30.395 13.0427 28.5052 13.5218 26.4291 13.8855C26.2783 13.4153 26.0565 12.7588 25.8524 12.1111C24.9741 9.32526 24.9741 9.31639 27.7245 8.52677C30.6877 7.68392 33.6688 7.26693 36.6143 8.58001C39.7018 9.95518 41.494 12.2353 41.4851 15.7309C41.4762 19.8831 41.4762 24.0441 41.4674 28.1963C41.4674 28.3471 41.3964 28.5068 41.3698 28.6399C38.7614 29.2964 38.2823 29.1189 36.7385 26.8299C34.6181 28.9859 32.125 29.9174 29.0908 29.1899C25.7016 28.3737 23.9183 26.0847 23.9982 22.5181C24.0692 19.4395 26.092 17.0263 29.3214 16.5383C31.4419 16.21 33.6155 16.2278 35.8602 16.0858ZM35.523 19.6347C33.9261 19.7589 32.2492 19.7411 30.6345 20.0516C29.2682 20.3178 28.5851 21.4446 28.6294 22.8286C28.6738 24.0618 29.4457 24.7716 30.6434 25.02C33.9349 25.7209 36.4103 23.148 35.523 19.6347Z" fill="#1C2A51"></path><path d="M5.34101 18.0015C5.34101 21.781 5.34101 25.3121 5.34101 28.8521C3.46899 28.8521 1.77442 28.8521 0 28.8521C0 19.1992 0 9.71496 0 0.195186C0.141954 0.12421 0.275035 0 0.416989 0C4.41831 0.0887211 8.44625 -0.0975932 12.4032 0.363757C17.6999 0.975932 20.4857 4.44493 20.3171 9.48429C20.2373 11.9596 19.0928 13.9203 17.1498 15.4197C16.6441 15.8101 16.0851 16.1384 15.4375 16.5642C17.7442 20.6454 20.0243 24.6645 22.4908 29.0118C20.5301 29.0118 18.8355 29.0739 17.1498 28.9586C16.7772 28.932 16.369 28.302 16.1206 27.8673C14.4882 25.0105 12.8646 22.1448 11.3297 19.2347C10.824 18.2766 10.2384 17.9039 9.17376 17.9838C7.99377 18.0725 6.79603 18.0015 5.34101 18.0015ZM5.42086 13.5211C7.47919 13.4058 9.36895 13.4235 11.2143 13.1485C13.0775 12.8734 14.3107 11.4628 14.497 9.82143C14.7454 7.67438 13.9558 5.90883 12.2701 5.20793C10.0876 4.2941 7.78084 4.37395 5.42086 4.6135C5.42086 7.55904 5.42086 10.3538 5.42086 13.5211Z" fill="#1C2A51"></path><path d="M100.479 9.75816C95.9212 5.97494 87.8902 6.55017 84.0848 10.9529C80.6113 14.9352 80.5892 22.7892 84.0406 25.9087C87.2043 24.4264 88.045 23.3866 87.5362 21.3954C88.1999 21.1963 88.8636 21.0193 89.7265 20.7759L86.4078 17.4573L89.7265 20.7759L86.2751 17.3246L87.6689 17.0812C87.9123 17.037 88.1778 17.0591 88.399 17.1697C89.1512 17.4795 91.0981 17.9883 93.0893 16.3511C95.6336 14.2493 97.2486 13.1431 97.2486 13.1431L98.9743 12.8334L98.7752 13.6962C98.7531 13.8732 98.7088 14.0502 98.6425 14.2051L98.5761 14.4706C98.5761 14.4706 98.1115 15.1343 97.2486 16.2848C96.9389 16.7051 96.6292 17.1255 96.2973 17.5016C96.0097 17.8556 95.7221 18.2317 95.3902 18.6299C94.5938 19.6034 94.3061 20.5547 94.2619 21.3512C94.2619 21.9485 94.3725 22.568 94.638 23.2538C94.7044 23.453 94.7044 23.6742 94.6822 23.9397C94.6822 23.9839 94.6822 24.0061 94.6822 24.0503L94.6601 24.1388C94.6159 24.4485 94.5495 24.8025 94.5053 25.2671C94.4831 25.2671 94.4831 25.245 94.461 25.245L94.4168 25.4662L91.0981 22.1476C90.8548 23.1432 90.6999 23.8291 90.545 24.537C88.4875 23.6963 87.1158 24.7583 86.0096 27.8114C90.4565 31.2406 98.5097 30.2451 102.027 25.8202C105.612 21.1742 104.881 13.4308 100.479 9.75816Z" fill="#8645FF"></path></svg>